<svg width="135" height="36" viewBox="0 0 135 36" fill="none" xmlns="http://www.w3.org/2000/svg">
<g clip-path="url(#clip0_956_816)">
<path fill-rule="evenodd" clip-rule="evenodd" d="M92.8508 25.4075C94.0735 26.1807 95.4761 26.5583 97.0404 26.5583C98.3171 26.5583 99.4679 26.2886 100.493 25.8031C101.377 25.3296 102.122 24.7037 102.705 23.9132V26.1987H105.941V0.827179H102.705V11.6838C102.119 10.8942 101.366 10.2602 100.457 9.78184C99.4319 9.2424 98.2991 8.97268 97.0404 8.97268C95.4761 8.97268 94.0915 9.35029 92.8508 10.1415C91.6281 10.9147 90.6391 11.9755 89.9199 13.3062C89.2006 14.6368 88.841 16.1292 88.841 17.7835C88.841 19.4378 89.2006 20.9302 89.9199 22.2608C90.6391 23.5914 91.6101 24.6343 92.8508 25.4075ZM100.367 22.7643C99.5758 23.2678 98.6408 23.5195 97.5799 23.5195C96.519 23.5195 95.566 23.2858 94.7568 22.7643C93.9297 22.2608 93.3003 21.5775 92.8328 20.7144C92.3653 19.8513 92.1315 18.8444 92.1315 17.7116C92.1315 16.5967 92.3653 15.6078 92.8328 14.7447C93.3003 13.8816 93.9297 13.1983 94.7388 12.6948C95.548 12.1913 96.483 11.9396 97.5439 11.9396C98.6048 11.9396 99.5398 12.1913 100.331 12.6948C101.122 13.1983 101.752 13.8816 102.219 14.7267C102.687 15.5718 102.92 16.5788 102.92 17.7475C102.92 18.8624 102.687 19.8513 102.237 20.7144C101.787 21.5775 101.158 22.2608 100.367 22.7643ZM61.0241 26.5583C60.0711 26.5583 59.172 26.4325 58.3449 26.1807C57.4998 25.929 56.7266 25.5694 56.0073 25.1198C55.2881 24.6703 54.6767 24.1129 54.1553 23.4655L56.2231 21.3977C56.8345 22.1529 57.5537 22.7283 58.3629 23.0879C59.172 23.4476 60.0711 23.6454 61.0601 23.6454C62.049 23.6454 62.8222 23.4656 63.3796 23.1239C63.9191 22.7823 64.1888 22.2968 64.1888 21.6854C64.1888 21.0741 63.973 20.5886 63.5235 20.2469C63.0919 19.9053 62.5165 19.6176 61.8333 19.4018C61.2685 19.2086 60.6668 19.0276 60.0385 18.8387L60.0384 18.8387L60.0376 18.8384L60.0291 18.8359L60.0278 18.8355C59.8994 18.7969 59.77 18.7579 59.6396 18.7185C58.8664 18.4848 58.1471 18.197 57.4458 17.8554C56.7625 17.4958 56.1872 17.0103 55.7556 16.3989C55.3241 15.7876 55.0903 14.9604 55.0903 13.9535C55.0903 12.9285 55.342 12.0475 55.8455 11.3102C56.349 10.555 57.0323 9.9976 57.9313 9.58403C58.8124 9.18844 59.8913 8.97266 61.15 8.97266C62.4806 8.97266 63.6494 9.20642 64.6923 9.67393C65.7352 10.1414 66.5623 10.8247 67.2276 11.7598L65.1598 13.8276C64.6923 13.2162 64.0989 12.7307 63.3976 12.4071C62.6964 12.0834 61.9052 11.9036 61.0241 11.9036C60.1071 11.9036 59.3878 12.0654 58.9023 12.3891C58.4168 12.7128 58.1651 13.1623 58.1651 13.7197C58.1651 14.2771 58.3809 14.7267 58.8124 15.0324C59.244 15.338 59.8014 15.6077 60.5026 15.8235C61.0363 15.9877 61.5804 16.1519 62.1508 16.3241L62.1521 16.3245L62.1522 16.3245L62.1531 16.3248L62.6964 16.4888C63.4516 16.7226 64.1708 17.0103 64.8721 17.3879C65.5554 17.7655 66.1308 18.269 66.5623 18.9163C66.9939 19.5636 67.2276 20.3908 67.2276 21.4337C67.2276 23.016 66.6702 24.2747 65.5374 25.2097C64.4226 26.0908 62.9121 26.5583 61.0241 26.5583ZM78.6638 26.5583C76.9736 26.5583 75.4632 26.1807 74.1146 25.4075C72.766 24.6343 71.7051 23.5914 70.9139 22.2608C70.1227 20.9302 69.7451 19.4198 69.7451 17.7475C69.7451 16.0932 70.1227 14.6008 70.8959 13.2702C71.6691 11.9396 72.712 10.8967 74.0247 10.1235C75.3373 9.35027 76.8118 8.97266 78.4481 8.97266C80.0124 8.97266 81.397 9.33229 82.5837 10.0336C83.7885 10.7528 84.7235 11.7238 85.3888 12.9825C86.0721 14.2412 86.3958 15.6617 86.3958 17.244C86.3958 17.45 86.3818 17.67 86.3662 17.9162L86.3598 18.0172C86.3418 18.287 86.2879 18.6106 86.2159 18.9523H72.998C73.1106 19.6096 73.3136 20.2104 73.6111 20.7504C74.0786 21.6315 74.7619 22.3327 75.643 22.8182C76.5241 23.3037 77.531 23.5554 78.6638 23.5554C79.6168 23.5554 80.4799 23.3936 81.2711 23.052C82.0623 22.7283 82.7456 22.2248 83.321 21.5595L85.3888 23.6634C84.5797 24.6164 83.5907 25.3356 82.4219 25.8391C81.2351 26.3066 79.9944 26.5583 78.6638 26.5583ZM73.5751 14.6188C73.31 15.1173 73.1199 15.6784 73.0085 16.291H83.2971C83.2104 15.5874 83.0285 14.9621 82.7456 14.421C82.35 13.6298 81.7746 13.0184 81.0374 12.5689C80.3001 12.1374 79.419 11.9036 78.3761 11.9036C77.2793 11.9036 76.3263 12.1374 75.4991 12.6229C74.672 13.0904 74.0247 13.7557 73.5751 14.6188ZM117.773 26.5583C116.226 26.5583 114.824 26.1807 113.583 25.4075C112.324 24.6343 111.335 23.5914 110.616 22.2608C109.897 20.9302 109.537 19.4377 109.537 17.7835C109.537 16.1292 109.897 14.6367 110.616 13.3061C111.335 11.9755 112.324 10.9146 113.565 10.1414C114.806 9.35027 116.208 8.97266 117.773 8.97266C119.049 8.97266 120.2 9.24238 121.207 9.78182C122.091 10.2551 122.822 10.8807 123.401 11.6586V9.33229H126.638V26.2167H123.401V26.1987V23.9398C122.828 24.7177 122.117 25.3349 121.243 25.8031C120.236 26.2886 119.085 26.5583 117.773 26.5583ZM118.312 23.5195C119.895 23.5195 121.189 22.9801 122.16 21.9012C123.131 20.8223 123.617 19.4377 123.617 17.7655C123.617 16.5967 123.401 15.5898 122.951 14.7267C122.52 13.8636 121.89 13.1803 121.081 12.6948C120.272 12.2093 119.337 11.9575 118.276 11.9575C117.215 11.9575 116.262 12.2093 115.453 12.7128C114.644 13.2162 113.997 13.8995 113.529 14.7626C113.062 15.6257 112.828 16.6147 112.828 17.7295C112.828 18.8624 113.062 19.8693 113.529 20.7324C113.997 21.5955 114.644 22.2788 115.471 22.7823C116.298 23.2857 117.251 23.5195 118.312 23.5195ZM131.474 5.32246C131.852 5.71805 132.337 5.91584 132.931 5.91584C133.524 5.91584 134.01 5.71805 134.387 5.32246C134.765 4.92688 134.963 4.44138 134.963 3.848C134.963 3.2726 134.765 2.80509 134.387 2.4095C134.01 2.01391 133.524 1.81612 132.931 1.81612C132.337 1.81612 131.852 2.01391 131.474 2.4095C131.097 2.80509 130.899 3.2726 130.899 3.848C130.899 4.44138 131.097 4.92688 131.474 5.32246ZM131.33 9.3143V26.1987H134.531V9.3143H131.33Z" fill="#F2F2F2"/>
<path fill-rule="evenodd" clip-rule="evenodd" d="M34.3038 35.477C33.3508 35.459 32.3977 35.3152 31.4807 35.0275C30.7435 34.8117 30.1321 34.2902 29.8084 33.6069C28.0103 29.9747 28.5677 25.6592 31.229 22.6204C32.3618 21.3258 33.1709 19.8513 33.6564 18.233C33.8542 17.5857 33.9981 16.9024 34.07 16.2371C34.3577 13.7916 33.9082 11.3642 32.7394 9.18842C31.229 6.40133 28.7296 4.35146 25.7087 3.4524C24.6119 3.12874 23.4791 2.94892 22.3462 2.94892C21.1954 2.94892 20.0626 3.12874 18.9658 3.4524C15.9269 4.36944 13.4275 6.40133 11.9351 9.18842C10.7663 11.3642 10.2988 13.7916 10.6045 16.2371C10.6944 16.9203 10.8203 17.5857 11.018 18.233C11.5035 19.8513 12.3307 21.3437 13.4455 22.6204C16.1067 25.6592 16.6642 29.9568 14.866 33.589C14.5244 34.2723 13.913 34.7937 13.1578 35.0275C12.2588 35.2972 11.3057 35.459 10.3527 35.459C10.6225 35.2612 10.8922 35.0634 11.1259 34.8297C14.2007 31.9347 14.2187 27.799 11.2158 24.5444C9.25588 22.3147 8.03317 19.5636 7.67354 16.5787C7.29594 13.5399 7.87133 10.501 9.32781 7.78588C11.1979 4.29752 14.3266 1.76216 18.1027 0.629344C19.4692 0.215775 20.8718 0.0179812 22.2743 0H22.3642C23.7667 0.0179812 25.1693 0.215775 26.5359 0.629344C30.3299 1.76216 33.4407 4.29752 35.3107 7.78588C36.7672 10.4831 37.3426 13.5399 36.965 16.5787C36.6054 19.5456 35.3826 22.2967 33.4047 24.5444C30.4018 27.799 30.4378 31.9347 33.4946 34.8297C33.7643 35.0814 34.0161 35.2792 34.3038 35.477ZM24.4322 26.1087C24.5401 27.8709 25.1155 29.5432 26.0685 30.9817C25.5471 27.3495 26.6259 23.5914 29.0354 20.7683C29.8985 19.7973 30.5099 18.6645 30.8875 17.4238C31.5888 15.1222 31.337 12.6048 30.2042 10.519C29.0714 8.39721 27.1654 6.85084 24.8458 6.14957C24.0366 5.91581 23.1915 5.77196 22.3284 5.77196H22.2565C21.4114 5.77196 20.5483 5.89783 19.7391 6.14957C17.4375 6.83286 15.5315 8.39721 14.3807 10.519C13.2659 12.6228 13.0141 15.1402 13.6974 17.4238C14.075 18.6645 14.6864 19.7973 15.5495 20.7683C18.0129 23.5734 19.0918 27.3315 18.5703 30.9817C19.5233 29.5432 20.0987 27.8709 20.2066 26.1087C20.3864 23.4475 19.5054 20.8582 17.7432 18.8443C16.0889 16.9383 15.7653 14.1512 16.97 11.9215C17.7432 10.483 19.0378 9.42215 20.6022 8.95464C21.1596 8.79281 21.735 8.7029 22.3284 8.7029C22.9038 8.7029 23.4792 8.79281 24.0366 8.95464C25.601 9.44013 26.8956 10.483 27.6688 11.9215C28.8736 14.1512 28.5679 16.9383 26.8956 18.8443C25.1335 20.8582 24.2524 23.4295 24.4322 26.1087ZM34.4297 29.723H34.4298C35.6706 29.723 36.8573 29.2015 37.6844 28.2305C37.9002 27.9968 38.08 27.799 38.2419 27.5832C39.4286 26.0908 40.4176 24.4365 41.1548 22.6744C41.2987 22.2967 41.2987 21.8832 41.1189 21.5056C40.9391 21.1459 40.5974 20.8582 40.2018 20.7324C40.058 20.6964 39.9141 20.6784 39.7703 20.6784C39.1769 20.6784 38.6554 21.0201 38.4217 21.5595C37.7923 23.0699 36.9472 24.4904 35.9223 25.7671C35.8385 25.8719 35.7486 25.9766 35.6526 26.0885L35.6524 26.0887C35.5836 26.1688 35.5118 26.2525 35.4368 26.3425C34.5197 27.3495 34.0343 28.5362 34.0343 29.705C34.1781 29.723 34.3039 29.723 34.4297 29.723ZM35.4188 32.8158C36.21 33.553 37.2349 33.9666 38.3318 33.9666C39.3028 33.9666 40.2558 33.625 41.029 33.0495C41.3706 32.7439 41.6943 32.4202 41.9999 32.0786C42.1017 31.955 42.2006 31.8372 42.2965 31.723L42.2967 31.7228L42.2968 31.7227C42.438 31.5546 42.5728 31.394 42.7012 31.2334C43.3306 30.4603 43.906 29.6331 44.4454 28.788C44.6792 28.4464 44.7331 28.0148 44.6252 27.6192C44.5173 27.2236 44.2656 26.9 43.888 26.7022C43.6722 26.5943 43.4564 26.5403 43.2227 26.5403C42.7192 26.5403 42.2337 26.81 41.964 27.2416C41.4965 27.9788 40.975 28.7161 40.4176 29.3993C40.3597 29.4678 40.3018 29.5378 40.243 29.6088C40.1009 29.7805 39.9536 29.9586 39.7883 30.1366C38.6015 31.5032 36.9472 32.3483 35.1491 32.5281C35.221 32.618 35.3289 32.7258 35.4188 32.8157L35.4188 32.8158ZM10.2088 29.723C8.96812 29.723 7.79934 29.1835 6.99018 28.2665L6.89896 28.1585C6.73635 27.9659 6.58456 27.7861 6.43277 27.6192C5.22802 26.1267 4.23905 24.4724 3.5198 22.7103C3.35797 22.3327 3.37595 21.9191 3.55577 21.5415C3.73558 21.1639 4.05924 20.8762 4.45483 20.7683C4.59868 20.7323 4.74253 20.6964 4.88638 20.6964C5.47976 20.6964 6.00122 21.038 6.23498 21.5775C6.86432 23.0879 7.70943 24.5084 8.73436 25.7851C8.87821 25.9649 9.02207 26.1447 9.20188 26.3425C10.1189 27.3494 10.6044 28.5362 10.6044 29.705C10.4786 29.723 10.3348 29.723 10.2089 29.723H10.2088ZM3.64582 33.0316C4.40103 33.6429 5.35404 33.9666 6.32503 33.9666C7.42188 33.9666 8.46479 33.553 9.25597 32.8158C9.34587 32.7259 9.43578 32.636 9.52569 32.5281C7.74554 32.3483 6.07329 31.5032 4.88653 30.1366C4.74865 29.9775 4.62329 29.8247 4.50305 29.6781C4.41944 29.5761 4.33831 29.4772 4.25718 29.3814C3.69976 28.6981 3.1783 27.9788 2.71079 27.2236C2.44107 26.7921 1.95558 26.5223 1.4521 26.5223C1.21835 26.5223 1.00257 26.5763 0.786794 26.6842C0.427169 26.882 0.157454 27.2056 0.0495669 27.6012C-0.0583206 27.9968 0.0136044 28.4104 0.229379 28.77C0.750835 29.6151 1.34422 30.4423 1.97356 31.2155L1.97357 31.2155C2.18934 31.4852 2.40511 31.7549 2.67482 32.0606C2.96252 32.4022 3.30417 32.7259 3.64582 33.0316Z" fill="#F2F2F2"/>
</g>
<defs>
<clipPath id="clip0_956_816">
<rect width="134.963" height="35.477" fill="white"/>
</clipPath>
</defs>
</svg>
